<mxfile host="app.diagrams.net" modified="2023-04-10T06:50:20.427Z" agent="Mozilla/5.0 (Windows NT 10.0; Win64; x64) AppleWebKit/537.36 (KHTML, like Gecko) Chrome/112.0.0.0 Safari/537.36" version="21.1.2" etag="Go-dJj4i02zJpxksN2Dk" type="github">
  <diagram name="Trang-1" id="pzLh-qzmSwaB5k14zIMv">
    <mxGraphModel>
      <root>
        <mxCell id="0" />
        <mxCell id="1" parent="0" />
      </root>
    </mxGraphModel>
  </diagram>
</mxfile>
